<svg xmlns="http://www.w3.org/2000/svg"  viewBox="0 0 64 64" width="64px" height="64px"><linearGradient id="4nJwdfy4dWvuoT3qSQ44Ra" x1="32" x2="32" y1="6.739" y2="57.422" gradientUnits="userSpaceOnUse"><stop offset="0" stop-color="#1a6dff"/><stop offset="1" stop-color="#c822ff"/></linearGradient><path fill="url(#4nJwdfy4dWvuoT3qSQ44Ra)" d="M53,56H41c-1.654,0-3-1.346-3-3s1.346-3,3-3c0.805,0,0.988-0.55,1-1.012V33H22v15	c0,1.497,1.374,2,2,2c1.654,0,3,1.346,3,3s-1.346,3-3,3H12c-1.654,0-3-1.346-3-3s1.346-3,3-3c0.805,0,0.988-0.55,1-1.012V16	c0-1.497-1.374-2-2-2c-1.654,0-3-1.346-3-3s1.346-3,3-3h12c1.654,0,3,1.346,3,3s-1.346,3-3,3c-0.805,0-0.988,0.55-1,1.012V27h20V16	c0-1.497-1.374-2-2-2c-1.654,0-3-1.346-3-3s1.346-3,3-3h12c1.654,0,3,1.346,3,3s-1.346,3-3,3c-0.805,0-0.988,0.55-1,1.012V48	c0,1.497,1.374,2,2,2c1.654,0,3,1.346,3,3S54.654,56,53,56z M21,31h22c0.552,0,1,0.448,1,1v17c0,1.206-0.799,3-3,3	c-0.551,0-1,0.449-1,1s0.449,1,1,1h12c0.551,0,1-0.449,1-1s-0.449-1-1-1c-1.924,0-4-1.529-4-4V15c0-1.206,0.799-3,3-3	c0.551,0,1-0.449,1-1s-0.449-1-1-1H40c-0.551,0-1,0.449-1,1s0.449,1,1,1c1.924,0,4,1.529,4,4v12c0,0.552-0.448,1-1,1H21	c-0.552,0-1-0.448-1-1V15c0-1.206,0.799-3,3-3c0.551,0,1-0.449,1-1s-0.449-1-1-1H11c-0.551,0-1,0.449-1,1s0.449,1,1,1	c1.924,0,4,1.529,4,4v33c0,1.206-0.799,3-3,3c-0.551,0-1,0.449-1,1s0.449,1,1,1h12c0.551,0,1-0.449,1-1s-0.449-1-1-1	c-1.924,0-4-1.529-4-4V32C20,31.448,20.448,31,21,31z"/><linearGradient id="4nJwdfy4dWvuoT3qSQ44Rb" x1="32" x2="32" y1="11.598" y2="59.357" gradientUnits="userSpaceOnUse"><stop offset="0" stop-color="#6dc7ff"/><stop offset="1" stop-color="#e6abff"/></linearGradient><path fill="url(#4nJwdfy4dWvuoT3qSQ44Rb)" d="M45.044,52C45.674,51.117,46,50.044,46,49V16c0-1.632-0.604-2.991-1.527-4h3.482	C47.326,12.883,47,13.956,47,15v33c0,1.632,0.604,2.991,1.527,4H45.044z M16.044,52C16.674,51.117,17,50.044,17,49V16	c0-1.632-0.604-2.991-1.527-4h3.482C18.326,12.883,18,13.956,18,15v33c0,1.632,0.604,2.991,1.527,4H16.044z"/></svg>